<svg xmlns="http://www.w3.org/2000/svg" xmlns:xlink="http://www.w3.org/1999/xlink" width="40" height="40" viewBox="0 0 40 40">
  <defs>
    <clipPath id="clip-apps_1">
      <rect width="40" height="40"/>
    </clipPath>
  </defs>
  <g id="apps_1" clip-path="url(#clip-apps_1)">
    <g id="Group_9912" data-name="Group 9912" transform="translate(-19583 -22898)">
      <path id="Path_18672" data-name="Path 18672" d="M61.818,6.32A18.08,18.08,0,0,1,91.641,9.9c-4.1,0-10.526,0-14.005,0-2.523,0-4.153-.057-5.916.873a8.341,8.341,0,0,0-4.185,5.494Z" transform="translate(19526.99 22899.984)" fill="#f44336"/>
      <path id="Path_18673" data-name="Path 18673" d="M170.842,176.913a6.011,6.011,0,1,0,6.011-6.014A6.019,6.019,0,0,0,170.842,176.913Z" transform="translate(19425.668 22741.176)" fill="#2196f3"/>
      <path id="Path_18674" data-name="Path 18674" d="M20.412,133.991a8.1,8.1,0,0,1-9.484-3.843c-1.65-2.848-6.014-10.447-7.994-13.9a18.109,18.109,0,0,0,11.645,27.621Z" transform="translate(19584.441 22791.971)" fill="#4caf50"/>
      <path id="Path_18675" data-name="Path 18675" d="M246.672,170.838a8.234,8.234,0,0,1,1.519,10.126c-1.433,2.473-6.011,10.2-8.229,13.937a18.1,18.1,0,0,0,18.178-24.065Z" transform="translate(19361.432 22741.236)" fill="#ffc107"/>
    </g>
  </g>
</svg>
