<svg xmlns="http://www.w3.org/2000/svg" xmlns:xlink="http://www.w3.org/1999/xlink" width="40" height="40" viewBox="0 0 40 40">
  <defs>
    <clipPath id="clip-apps_3">
      <rect width="40" height="40"/>
    </clipPath>
  </defs>
  <g id="apps_3" clip-path="url(#clip-apps_3)">
    <g id="Group_9911" data-name="Group 9911" transform="translate(-19873 -22997)">
      <path id="skype" d="M34.351,20.824a15.738,15.738,0,0,0,.114-1.889A16.482,16.482,0,0,0,17.914,2.558a15.713,15.713,0,0,0-1.886.133A10.477,10.477,0,0,0,1.65,17.22a15.756,15.756,0,0,0-.112,1.887A16.482,16.482,0,0,0,18.086,35.486a15.767,15.767,0,0,0,1.887-.133A10.477,10.477,0,0,0,34.351,20.824ZM18.062,31c-5.81.03-9-3.414-9.007-5.192v-.748a2.245,2.245,0,0,1,4.483-.2c.585,1.151,2.661,1.658,4.505,1.646.184,0,4.49-.058,4.474-3.017,0-1.429-1.91-2-5.042-2.782-3.769-.938-8.453-2.1-8.48-6.879-.033-6.038,4.667-6.759,8.2-6.779,5-.025,8.242,2.015,8.259,5.2a2.245,2.245,0,0,1-4.471.313,5.688,5.688,0,0,0-3.863-1.018,7.126,7.126,0,0,0-2.637.323c-.467.208-1,.617-1,1.946,0,1.111,2.259,1.726,4.64,2.377C22.066,17.263,26.974,18.6,27,23.469c.028,4.542-3.48,7.5-8.935,7.527Z" transform="translate(19875 22997.902)" fill="#2196f3"/>
    </g>
  </g>
</svg>
